2.8Hzhigh3min_grf.mot
version=1
nRows=15
nColumns 19
inDegrees=yes
endheader
time	1_ground_force_vx	1_ground_force_vy	1_ground_force_vz	1_ground_force_px	1_ground_force_py	1_ground_force_pz	1_ground_torque_x	1_ground_torque_y	1_ground_torque_z	2_ground_force_vx	2_ground_force_vy	2_ground_force_vz	2_ground_force_px	2_ground_force_py	2_ground_force_pz	2_ground_torque_x	2_ground_torque_y	2_ground_torque_z
            0.005000	           -0.547340	           -5.230956	            0.712644	           -0.117028	            0.006404	           -0.442630	           -0.648244	           -0.054443	           -0.341463	           10.532785	           66.181469	           -9.107391	           -0.173364	            0.005679	           -0.647574	            0.073317	            0.460679	           -0.063395
            0.005500	           -0.318631	           -4.328994	            0.578372	           -0.117028	            0.006404	           -0.442630	           -0.473272	           -0.637691	           -0.090281	           11.271913	           68.592992	          -13.275769	           -0.188022	            0.005648	           -0.653834	           -0.020985	           -0.127700	            0.024716
            0.006000	            0.369008	           -1.805928	            0.770911	           -0.117028	            0.006404	           -0.442630	            0.099799	           -0.859905	            0.124556	            7.313372	           61.951115	          -13.813939	           -0.203658	            0.005609	           -0.658628	           -0.080558	           -0.682405	            0.152164
            0.006500	            2.338080	            4.505521	            0.380369	           -0.117028	            0.006404	           -0.442630	            0.959899	           -0.713773	            0.864810	            0.453370	           67.986918	           -9.190393	           -0.191169	            0.005616	           -0.647859	           -0.009952	           -1.492317	            0.201730
            0.007000	            7.604302	           18.392501	           -0.857163	           -0.117028	            0.006404	           -0.442630	            0.105643	            0.255518	           -0.011908	           -7.644121	           92.610268	           -2.482077	           -0.164536	            0.005730	           -0.653095	            0.069061	           -0.836689	            0.022424
            0.007500	           15.252319	           35.347014	           -2.683598	           -0.126331	            0.006467	           -0.457723	            0.194850	            0.451561	           -0.034283	          -15.188897	          119.636431	            2.310489	           -0.166749	            0.005746	           -0.659683	           -0.178334	            1.404659	            0.027128
            0.008000	           23.406672	           54.100153	           -3.540580	           -0.151088	            0.006417	           -0.446961	            0.002873	            0.006641	           -0.000435	          -19.378708	          150.934126	            0.406014	           -0.185527	            0.005682	           -0.660837	           -0.416935	            3.247366	            0.008735
            0.008500	           28.676565	           69.062043	           -3.214373	           -0.159753	            0.006434	           -0.451453	           -0.016341	           -0.039355	            0.001832	          -18.283626	          197.184701	           -6.374961	           -0.189927	            0.005658	           -0.658479	           -0.323291	            3.486620	           -0.112722
            0.009000	           28.907979	           83.835418	           -1.179755	           -0.153718	            0.006447	           -0.454065	            0.122775	            0.356058	           -0.005011	          -16.287116	          253.201358	          -13.919289	           -0.186142	            0.005673	           -0.658773	           -0.106430	            1.654572	           -0.090957
            0.009500	           25.515560	          109.604693	            0.819291	           -0.152797	            0.006433	           -0.450799	            0.212603	            0.913257	            0.006827	          -20.766372	          312.318490	          -19.572572	           -0.188017	            0.005667	           -0.659002	            0.064140	           -0.964637	            0.060452
            0.010000	           19.967154	          127.266512	            1.642503	           -0.153068	            0.006452	           -0.455238	            0.160140	            1.020697	            0.013173	          -35.716036	          365.304274	          -20.597193	           -0.193356	            0.005643	           -0.657872	            0.260180	           -2.661122	            0.150044
            0.010500	           13.683010	          148.536255	            1.841012	           -0.165827	            0.006413	           -0.446721	            0.034949	            0.379387	            0.004702	          -58.884143	          398.175373	          -18.170299	           -0.193340	            0.005645	           -0.658332	            0.348258	           -2.354929	            0.107465
            0.011000	            8.353935	          180.451689	           -0.210060	           -0.170588	            0.006380	           -0.439220	           -0.012216	           -0.263865	            0.000307	          -83.356962	          403.231540	          -14.856533	           -0.187766	            0.005681	           -0.662775	            0.111595	           -0.539828	            0.019889
            0.011500	            4.489572	          206.064006	           -3.667503	           -0.165318	            0.006419	           -0.448090	           -0.012246	           -0.562071	            0.010004	         -102.326742	          376.446966	          -10.954808	           -0.181703	            0.005706	           -0.663568	           -0.475011	            1.747504	           -0.050853
            0.012000	           -0.004980	          223.546746	           -3.076960	           -0.167523	            0.006417	           -0.447878	            0.000006	           -0.257530	            0.003545	         -112.894683	          345.811140	           -3.034632	           -0.177671	            0.005716	           -0.662398	           -1.048533	            3.211793	           -0.028185
